<svg xmlns="http://www.w3.org/2000/svg" viewBox="0 0 231.79 231.8" fill="white">
  <defs>
  </defs>
  <g class="a">
    <path class="b" d="M193.83,30.06A115.56,115.56,0,0,0,119,0V14.85a100.88,100.88,0,0,1,64.78,25.23Z"/>
    <path class="b" d="M193,182.94l9.76,9.76a115.53,115.53,0,0,0,29-73.66H218.14A100.82,100.82,0,0,1,193,183"/>
    <path class="b" d="M231.79,112.75a115.54,115.54,0,0,0-33.41-78.32l-10,10a100.94,100.94,0,0,1,29.7,68.37Z"/>
    <path class="b" d="M112.75,0A115.48,115.48,0,0,0,39.09,29.05l11,11a100.9,100.9,0,0,1,62.69-25.11Z"/>
    <path class="b" d="M0,119a115.56,115.56,0,0,0,30.06,74.79L40.89,183a100.79,100.79,0,0,1-25.21-64Z"/>
    <path class="b" d="M34.42,198.38a115.64,115.64,0,0,0,78.33,33.42V217.28a101,101,0,0,1-67.56-29.67Z"/>
    <path class="b" d="M34.49,33.36A115.57,115.57,0,0,0,0,112.75H15.69A101,101,0,0,1,45.45,44.33Z"/>
    <path class="b" d="M119,231.8a115.56,115.56,0,0,0,79.39-34.49l-9.75-9.75A101,101,0,0,1,119,217.36Z"/>
    <path class="b" d="M65.76,39.36a2.7,2.7,0,0,0-3.12,2.19c-.17,1,.2,1.64,1.53,3.53S66,47.54,67,47.72a2.67,2.67,0,0,0,3.11-2.16v0c.17-1-.2-1.64-1.52-3.53s-1.82-2.46-2.8-2.64m5.48,6.22a4,4,0,0,1-4.63,3.24c-1.45-.25-2.07-1.14-3.42-3.06s-2-2.81-1.71-4.26a4,4,0,0,1,4.63-3.24c1.44.25,2.07,1.14,3.41,3.06s2,2.81,1.72,4.26"/>
    <path class="b" d="M81.92,41a4,4,0,0,1-3,.15C77.49,40.68,77,39.7,76,37.57s-1.45-3.11-1-4.49a3.91,3.91,0,0,1,2.07-2.23A3.73,3.73,0,0,1,82,32.21l-1.1.51a2.61,2.61,0,0,0-3.32-.92,2.67,2.67,0,0,0-1.4,1.51c-.33.95-.08,1.67.9,3.77s1.37,2.75,2.3,3.1a2.71,2.71,0,0,0,3.45-1.65,2.76,2.76,0,0,0,.07-1.61l1.06-.5a3.72,3.72,0,0,1-2,4.58"/>
    <polygon class="b" points="60.22 55.63 56.63 52.08 52.94 55.81 56.53 59.36 55.7 60.2 47.84 52.42 48.67 51.58 52.19 55.06 55.88 51.33 52.36 47.85 53.19 47.01 61.05 54.79 60.22 55.63"/>
    <path class="b" d="M109.25,33.79a4.86,4.86,0,0,1-3.9-1.14l.74-.87a3.8,3.8,0,0,0,3.1,1c1.61-.13,2.54-1,2.44-2.25a1.78,1.78,0,0,0-.64-1.34,2.45,2.45,0,0,0-1.48-.41l-1.3-.1a3.93,3.93,0,0,1-2.1-.67,2.61,2.61,0,0,1-1-2c-.15-1.87,1.1-3.22,3.28-3.4a4.47,4.47,0,0,1,3.38.94l-.7.82a3.47,3.47,0,0,0-2.65-.73c-1.47.11-2.25,1-2.15,2.23a1.53,1.53,0,0,0,.6,1.22,3.21,3.21,0,0,0,1.53.49l1.22.09a3.5,3.5,0,0,1,2.08.61,2.76,2.76,0,0,1,1.1,2.11c.16,1.93-1.26,3.25-3.55,3.43"/>
    <path class="b" d="M123.17,33.83a3.93,3.93,0,0,1-2.72-1.39c-1-1.13-.85-2.21-.65-4.54s.29-3.42,1.42-4.37a3.94,3.94,0,0,1,2.91-.9,3.73,3.73,0,0,1,3.54,3.61l-1.21-.1A2.6,2.6,0,0,0,124,23.69a2.65,2.65,0,0,0-2,.61c-.76.65-.9,1.4-1.1,3.71s-.19,3.06.45,3.84a2.72,2.72,0,0,0,3.82.29,2.75,2.75,0,0,0,.85-1.36l1.17.1a3.72,3.72,0,0,1-4.09,2.95"/>
    <polygon class="b" points="97.96 35.4 96.68 30.52 91.61 31.85 92.89 36.73 91.74 37.03 88.94 26.34 90.08 26.04 91.34 30.83 96.42 29.5 95.16 24.71 96.3 24.41 99.1 35.1 97.96 35.4"/>
    <path class="b" d="M151.2,41.53a3.66,3.66,0,0,1-2-4.77,2.39,2.39,0,0,1,.13-.28l3.22-6.67,1.06.52-3.18,6.58a2.68,2.68,0,0,0,4.74,2.52l.09-.19,3.17-6.59,1.06.52-3.21,6.67a3.67,3.67,0,0,1-4.85,1.82l-.26-.13"/>
    <polygon class="b" points="139.88 36.94 141.21 32.08 136.14 30.7 134.82 35.57 133.68 35.26 136.58 24.59 137.72 24.9 136.42 29.68 141.48 31.06 142.78 26.28 143.92 26.59 141.02 37.25 139.88 36.94"/>
    <polygon class="b" points="160.9 46.9 167.34 37.91 168.3 38.6 162.47 46.72 167.07 50.02 166.45 50.87 160.9 46.9"/>
    <polygon class="b" points="171.21 55.01 179.03 47.19 183.88 52.04 183.13 52.79 179.12 48.77 176.36 51.53 179.78 54.95 179.04 55.7 175.61 52.27 172.79 55.09 176.81 59.11 176.07 59.86 171.21 55.01"/>
    <path class="b" d="M65.79,183.37l-2.24-1.92-2.64,3.08,2.24,1.92a2,2,0,1,0,2.9-2.86,2.75,2.75,0,0,0-.26-.22m-4.81,9L62.26,187l-2-1.72L57.07,189l-.9-.77,7.18-8.4,3.22,2.76a3,3,0,0,1,.74,4.15,3.76,3.76,0,0,1-.25.31,2.86,2.86,0,0,1-3.75.69L62,193.3Z"/>
    <polygon class="b" points="74.78 201.17 77.17 196.73 72.54 194.24 70.16 198.69 69.12 198.13 74.35 188.39 75.39 188.95 73.04 193.31 77.67 195.8 80.01 191.43 81.05 191.99 75.82 201.73 74.78 201.17"/>
    <polygon class="b" points="84.5 205.16 87.54 194.54 94.14 196.42 93.85 197.44 88.39 195.88 87.31 199.62 91.97 200.96 91.68 201.97 87.02 200.63 85.93 204.47 91.39 206.03 91.1 207.05 84.5 205.16"/>
    <rect class="b" x="94.92" y="202.42" width="11.06" height="1.18" transform="translate(-113.42 277.6) rotate(-82.9)"/>
    <polygon class="b" points="116.2 209.1 110.14 200.36 110.33 209.22 109.15 209.25 108.92 198.2 110.03 198.17 116.09 206.88 115.9 198.05 117.08 198.02 117.32 209.07 116.2 209.1"/>
    <polygon class="b" points="134.33 206.88 133.03 198.59 131.07 205.63 130.07 205.79 126.01 199.69 127.31 207.98 126.14 208.16 124.43 197.25 125.6 197.06 130.37 204.25 132.62 195.97 133.79 195.78 135.5 206.7 134.33 206.88"/>
    <path class="b" d="M144.15,194.3v6.2l3.89-1.39Zm6.25,7.7-1.68-2-4.55,1.63v2.65l-1.18.43.09-11.78.94-.34,7.55,9Z"/>
    <rect class="b" x="155.61" y="187.75" width="1.18" height="11.05" transform="translate(-70.58 91.66) rotate(-26.92)"/>
    <polygon class="b" points="172.71 189.52 162.8 185.67 167.92 192.91 166.95 193.59 160.58 184.56 161.49 183.92 171.38 187.75 166.28 180.53 167.24 179.85 173.62 188.88 172.71 189.52"/>
    <path class="b" d="M75.9,102.51v26H60V101.62a10.64,10.64,0,0,1,.56-2.9,7,7,0,0,1,4.68-4.49,7.59,7.59,0,0,1,7.15.94,8.47,8.47,0,0,1,3.51,6.45Zm3.83-8.84a14.13,14.13,0,0,0-7-5.42A20.07,20.07,0,0,0,68,87.41a18.08,18.08,0,0,0-4.67.75q-9.63,3.56-9.63,13.46v42.82H60V134.9H75.9v9.54h6.36V101.62a16.06,16.06,0,0,0-2.53-8"/>
    <path class="b" d="M104.06,87.32a26.34,26.34,0,0,1,4.76.74,14.66,14.66,0,0,1,7,5.52,16.36,16.36,0,0,1,2.52,8v1.59H112v-1.59A8.24,8.24,0,0,0,106.39,94a10.12,10.12,0,0,0-4.77,0,7.85,7.85,0,0,0-5.51,7.57v4.58a1.71,1.71,0,0,0,.84,1.5l19.82,10.94a3.38,3.38,0,0,1,1.5,2.34h.09v9.16a15.92,15.92,0,0,1-2.52,8,13.37,13.37,0,0,1-7,5.42,20.62,20.62,0,0,1-5.52.84,9.36,9.36,0,0,1-4-.84,13,13,0,0,1-7.1-5.42,14.09,14.09,0,0,1-2.43-8v-1.59h6.35v1.59a7.89,7.89,0,0,0,5.52,7.57,7.14,7.14,0,0,0,2.43.28,6.55,6.55,0,0,0,2.33-.28,8.11,8.11,0,0,0,5.61-7.58v-4.86a2,2,0,0,0-.84-1.59l-19.82-11a3.27,3.27,0,0,1-1.59-3.18v-7.85a14.36,14.36,0,0,1,9.54-13.52,21.85,21.85,0,0,1,4.76-.74"/>
    <path class="b" d="M171.78,102.51v26H155.89V101.62a9.88,9.88,0,0,1,.56-2.9,7,7,0,0,1,4.67-4.49,7.61,7.61,0,0,1,7.16.94,8.43,8.43,0,0,1,3.5,6.45Zm3.84-8.84a14.18,14.18,0,0,0-7-5.42,20.31,20.31,0,0,0-4.77-.84,18.08,18.08,0,0,0-4.67.75q-9.63,3.56-9.63,13.46v42.82h6.35V134.9h15.9v9.53h6.35V101.62a16.15,16.15,0,0,0-2.52-8"/>
    <polygon class="b" points="142.5 107.03 134.44 107.03 134.44 93.76 128.09 93.76 128.09 144.48 134.44 144.48 134.44 113.39 142.5 113.39 142.5 107.03"/>
  </g>
</svg>