<svg xmlns="http://www.w3.org/2000/svg"
  xmlns:xlink="http://www.w3.org/1999/xlink" viewBox="0 0 49 49">
  <defs>
    <filter id="Ellipse_1" filterUnits="userSpaceOnUse">
      <feOffset input="SourceAlpha"/>
      <feGaussianBlur stdDeviation="1.5" result="blur"/>
      <feFlood flood-opacity="0.161"/>
      <feComposite operator="in" in2="blur"/>
      <feComposite in="SourceGraphic"/>
    </filter>
  </defs>
  <a xlink:href="https://www.instagram.com/asta_hsrm/" target="_blank">
    <g id="SM_Button" data-name="SM Button" transform="translate(-718.5 -1025.5)">
      <g transform="matrix(1, 0, 0, 1, 718.5, 1025.5)" filter="url(#Ellipse_1)">
        <circle id="Ellipse_1-2" data-name="Ellipse 1" cx="20" cy="20" r="20" transform="translate(4.5 4.5)" fill="#fff"/>
      </g>
      <path id="Icon_awesome-instagram" data-name="Icon awesome-instagram" d="M10,7.11a5.128,5.128,0,1,0,5.128,5.128A5.12,5.12,0,0,0,10,7.11Zm0,8.461a3.334,3.334,0,1,1,3.334-3.334A3.34,3.34,0,0,1,10,15.571ZM16.533,6.9a1.2,1.2,0,1,1-1.2-1.2A1.193,1.193,0,0,1,16.533,6.9Zm3.4,1.214a5.919,5.919,0,0,0-1.616-4.191,5.958,5.958,0,0,0-4.191-1.616c-1.651-.094-6.6-.094-8.252,0A5.949,5.949,0,0,0,1.681,3.919,5.938,5.938,0,0,0,.065,8.11c-.094,1.651-.094,6.6,0,8.252a5.919,5.919,0,0,0,1.616,4.191,5.965,5.965,0,0,0,4.191,1.616c1.651.094,6.6.094,8.252,0a5.919,5.919,0,0,0,4.191-1.616,5.958,5.958,0,0,0,1.616-4.191c.094-1.651.094-6.6,0-8.247ZM17.8,18.133a3.375,3.375,0,0,1-1.9,1.9c-1.317.522-4.44.4-5.9.4s-4.583.116-5.9-.4a3.375,3.375,0,0,1-1.9-1.9c-.522-1.317-.4-4.44-.4-5.9s-.116-4.583.4-5.9a3.375,3.375,0,0,1,1.9-1.9c1.317-.522,4.44-.4,5.9-.4s4.583-.116,5.9.4a3.375,3.375,0,0,1,1.9,1.9c.522,1.317.4,4.44.4,5.9S18.318,16.821,17.8,18.133Z" transform="translate(733.287 1037.775)" fill="#a61d37"/>
    </g>
  </a>
</svg>
