<svg xmlns="http://www.w3.org/2000/svg"
  xmlns:xlink="http://www.w3.org/1999/xlink" viewBox="0 0 49 49">
  <defs>
    <filter id="Ellipse_1" x="0" y="0" filterUnits="userSpaceOnUse">
      <feOffset input="SourceAlpha"/>
      <feGaussianBlur stdDeviation="1.5" result="blur"/>
      <feFlood flood-opacity="0.161"/>
      <feComposite operator="in" in2="blur"/>
      <feComposite in="SourceGraphic"/>
    </filter>
  </defs>
  <a xlink:href="https://twitter.com/asta_hsrm" target="_blank">
    <g id="SM_Button" data-name="SM Button" transform="translate(-718.5 -1025.5)">
      <g transform="matrix(1, 0, 0, 1, 718.5, 1025.5)" filter="url(#Ellipse_1)">
        <circle id="Ellipse_1-2" data-name="Ellipse 1" cx="20" cy="20" r="20" transform="translate(4.5 4.5)" fill="#fff"/>
      </g>
      <path id="Icon_awesome-twitter" data-name="Icon awesome-twitter" d="M17.944,7.429c.013.178.013.355.013.533A11.583,11.583,0,0,1,6.294,19.624,11.583,11.583,0,0,1,0,17.784a8.48,8.48,0,0,0,.99.051,8.209,8.209,0,0,0,5.089-1.751,4.106,4.106,0,0,1-3.833-2.843,5.169,5.169,0,0,0,.774.063,4.335,4.335,0,0,0,1.079-.14A4.1,4.1,0,0,1,.812,9.142V9.091a4.128,4.128,0,0,0,1.853.52A4.105,4.105,0,0,1,1.4,4.129,11.651,11.651,0,0,0,9.848,8.419a4.627,4.627,0,0,1-.1-.939,4.1,4.1,0,0,1,7.094-2.8,8.07,8.07,0,0,0,2.6-.99,4.088,4.088,0,0,1-1.8,2.259A8.217,8.217,0,0,0,20,5.31,8.811,8.811,0,0,1,17.944,7.429Z" transform="translate(732.735 1038.289)" fill="#a61d37"/>
    </g>
  </a>
</svg>
